<svg width="32" height="32" viewBox="0 0 32 32" fill="none" xmlns="http://www.w3.org/2000/svg">
    <path d="M28 5.66699C28.5523 5.66699 29 6.11471 29 6.66699V25.333C29 25.8853 28.5523 26.333 28 26.333H4C3.44772 26.333 3 25.8853 3 25.333V6.66699C3 6.11471 3.44772 5.66699 4 5.66699H28ZM5 24.333H27V7.66699H5V24.333ZM7.62598 9.95996C8.0165 9.56944 8.64951 9.56944 9.04004 9.95996L14.374 15.293C14.7643 15.6835 14.7643 16.3165 14.374 16.707L9.04004 22.04C8.64951 22.4306 8.0165 22.4306 7.62598 22.04C7.23578 21.6495 7.23556 21.0164 7.62598 20.626L12.2529 16L7.62598 11.374C7.23556 10.9836 7.23578 10.3505 7.62598 9.95996ZM23.667 20.333C24.219 20.3332 24.6668 20.781 24.667 21.333C24.667 21.8852 24.2191 22.3328 23.667 22.333H15.667C15.1147 22.333 14.667 21.8853 14.667 21.333C14.6672 20.7809 15.1148 20.333 15.667 20.333H23.667Z"
          fill="#FFD230"/>
</svg>
