<svg width="24" height="24" viewBox="0 0 24 24" fill="none" xmlns="http://www.w3.org/2000/svg">
    <path d="M16.9697 11.4697C17.2626 11.1768 17.7374 11.1768 18.0303 11.4697C18.3232 11.7626 18.3232 12.2374 18.0303 12.5303L12.5303 18.0303C12.2374 18.3232 11.7626 18.3232 11.4697 18.0303L5.96973 12.5303C5.67683 12.2374 5.67683 11.7626 5.96973 11.4697C6.26262 11.1768 6.73738 11.1768 7.03027 11.4697L12 16.4395L16.9697 11.4697ZM16.9697 7.46973C17.2626 7.17683 17.7374 7.17683 18.0303 7.46973C18.3232 7.76262 18.3232 8.23738 18.0303 8.53027L12.5303 14.0303C12.2374 14.3232 11.7626 14.3232 11.4697 14.0303L5.96973 8.53027C5.67683 8.23738 5.67683 7.76262 5.96973 7.46973C6.26262 7.17683 6.73738 7.17683 7.03027 7.46973L12 12.4395L16.9697 7.46973Z" fill="#FFD230"/>
</svg>
